<svg xmlns="http://www.w3.org/2000/svg" viewBox="0 0 1440 320">
  <path fill="#0099ff" fill-opacity="0.5" d="M0,160L48,181.3C96,203,192,245,288,250.7C384,256,480,224,576,192C672,160,768,128,864,138.7C960,149,1056,203,1152,208C1248,213,1344,171,1392,149.3L1440,128L1440,320L1392,320C1344,320,1248,320,1152,320C1056,320,960,320,864,320C768,320,672,320,576,320C480,320,384,320,288,320C192,320,96,320,48,320L0,320Z"></path>
  <path fill="#0099ff" fill-opacity="0.2" d="M0,224L48,213.3C96,203,192,181,288,192C384,203,480,245,576,234.7C672,224,768,160,864,149.3C960,139,1056,181,1152,192C1248,203,1344,181,1392,170.7L1440,160L1440,320L1392,320C1344,320,1248,320,1152,320C1056,320,960,320,864,320C768,320,672,320,576,320C480,320,384,320,288,320C192,320,96,320,48,320L0,320Z"></path>
</svg>